<svg width="1394" height="822" viewBox="0 0 1394 822" fill="none" xmlns="http://www.w3.org/2000/svg">
<g filter="url(#filter0_d_0_1)">
<rect x="84.1691" y="342" width="62.8097" height="62.8097" rx="31.4048" fill="white"/>
</g>
<path d="M113.993 360.677L102.796 365.31C102.174 365.568 102.18 366.452 102.807 366.701L114.05 371.159C115.038 371.551 116.138 371.551 117.126 371.159L128.37 366.701C128.996 366.452 129.003 365.568 128.38 365.31L117.184 360.677C116.162 360.255 115.014 360.255 113.993 360.677Z" fill="#FFBF00"/>
<path d="M116.607 373.595V384.734C116.607 385.264 117.141 385.626 117.633 385.431L130.162 380.568C130.448 380.455 130.635 380.178 130.635 379.871V368.732C130.635 368.203 130.101 367.84 129.609 368.035L117.08 372.898C116.794 373.011 116.607 373.288 116.607 373.595Z" fill="#26B5F8"/>
<path d="M113.672 374.174L109.954 375.969L109.576 376.151L101.727 379.912C101.23 380.152 100.595 379.79 100.595 379.237V368.783C100.595 368.583 100.697 368.41 100.835 368.28C100.892 368.222 100.957 368.175 101.025 368.138C101.212 368.025 101.48 367.995 101.707 368.085L113.61 372.801C114.215 373.041 114.262 373.889 113.672 374.174Z" fill="#ED3049"/>
<path d="M113.666 374.174L109.948 375.969L100.829 368.28C100.887 368.222 100.952 368.175 101.019 368.138C101.207 368.025 101.474 367.995 101.702 368.085L113.604 372.801C114.209 373.041 114.257 373.889 113.666 374.174Z" fill="black" fill-opacity="0.25"/>
<g opacity="0.1" filter="url(#filter1_d_0_1)">
<rect x="771.829" y="572.281" width="155" height="155" rx="77.5" fill="#00A1E0"/>
</g>
<path d="M843.125 630.714C845.4 628.343 848.568 626.873 852.072 626.873C856.73 626.873 860.793 629.47 862.957 633.326C864.838 632.485 866.92 632.018 869.11 632.018C877.51 632.018 884.321 638.888 884.321 647.362C884.321 655.837 877.51 662.707 869.11 662.707C868.103 662.707 867.1 662.607 866.113 662.408C864.208 665.807 860.576 668.104 856.408 668.104C854.663 668.104 853.013 667.701 851.543 666.984C849.612 671.528 845.111 674.714 839.865 674.714C834.403 674.714 829.747 671.258 827.96 666.41C827.179 666.576 826.37 666.663 825.54 666.663C819.036 666.663 813.763 661.336 813.763 654.763C813.763 650.359 816.132 646.513 819.652 644.456C818.927 642.789 818.524 640.948 818.524 639.013C818.524 631.455 824.66 625.328 832.228 625.328C836.672 625.328 840.621 627.441 843.125 630.714Z" fill="#00A1E0"/>
<path d="M823.982 650.936C823.938 651.052 823.998 651.076 824.012 651.096C824.145 651.192 824.279 651.262 824.415 651.339C825.135 651.721 825.814 651.833 826.525 651.833C827.972 651.833 828.871 651.063 828.871 649.823V649.799C828.871 648.653 827.857 648.237 826.905 647.937L826.781 647.897C826.064 647.663 825.444 647.462 825.444 646.99V646.965C825.444 646.561 825.806 646.263 826.367 646.263C826.99 646.263 827.73 646.47 828.206 646.734C828.206 646.734 828.346 646.824 828.397 646.688C828.425 646.616 828.667 645.967 828.692 645.896C828.719 645.82 828.671 645.764 828.622 645.734C828.078 645.403 827.326 645.177 826.548 645.177L826.403 645.178C825.079 645.178 824.154 645.978 824.154 647.125V647.149C824.154 648.358 825.174 648.75 826.13 649.023L826.284 649.071C826.98 649.285 827.58 649.469 827.58 649.959V649.983C827.58 650.431 827.19 650.765 826.561 650.765C826.317 650.765 825.538 650.76 824.697 650.228C824.595 650.169 824.536 650.126 824.457 650.079C824.416 650.052 824.313 650.007 824.268 650.144L823.982 650.936ZM845.17 650.936C845.126 651.052 845.186 651.076 845.2 651.096C845.333 651.192 845.468 651.262 845.603 651.339C846.323 651.721 847.003 651.833 847.713 651.833C849.16 651.833 850.059 651.063 850.059 649.823V649.799C850.059 648.653 849.045 648.237 848.093 647.937L847.969 647.897C847.252 647.663 846.633 647.462 846.633 646.99V646.965C846.633 646.561 846.994 646.263 847.555 646.263C848.178 646.263 848.918 646.47 849.395 646.734C849.395 646.734 849.534 646.824 849.586 646.688C849.614 646.616 849.855 645.967 849.88 645.896C849.907 645.82 849.859 645.764 849.81 645.734C849.266 645.403 848.514 645.177 847.736 645.177L847.591 645.178C846.267 645.178 845.342 645.978 845.342 647.125V647.149C845.342 648.358 846.362 648.75 847.318 649.023L847.472 649.071C848.168 649.285 848.77 649.469 848.77 649.959V649.983C848.77 650.431 848.379 650.765 847.749 650.765C847.505 650.765 846.726 650.76 845.885 650.228C845.783 650.169 845.723 650.128 845.647 650.079C845.621 650.061 845.498 650.014 845.456 650.144L845.17 650.936ZM859.635 648.509C859.635 649.209 859.504 649.761 859.247 650.151C858.993 650.537 858.608 650.725 858.071 650.725C857.533 650.725 857.151 650.538 856.9 650.151C856.647 649.762 856.518 649.209 856.518 648.509C856.518 647.809 856.647 647.258 856.9 646.872C857.151 646.49 857.533 646.304 858.071 646.304C858.608 646.304 858.993 646.49 859.248 646.872C859.504 647.258 859.635 647.809 859.635 648.509ZM860.843 647.21C860.725 646.809 860.54 646.455 860.293 646.161C860.047 645.865 859.736 645.628 859.366 645.455C858.997 645.283 858.561 645.196 858.071 645.196C857.581 645.196 857.144 645.283 856.776 645.455C856.406 645.628 856.094 645.865 855.847 646.161C855.602 646.456 855.417 646.81 855.297 647.21C855.18 647.609 855.12 648.045 855.12 648.509C855.12 648.972 855.18 649.409 855.297 649.807C855.417 650.207 855.601 650.561 855.848 650.856C856.094 651.152 856.407 651.388 856.776 651.556C857.145 651.724 857.581 651.809 858.071 651.809C858.561 651.809 858.996 651.724 859.366 651.556C859.735 651.388 860.047 651.152 860.294 650.856C860.54 650.562 860.725 650.208 860.843 649.807C860.962 649.408 861.021 648.971 861.021 648.509C861.021 648.046 860.962 647.609 860.843 647.21ZM870.764 650.538C870.724 650.42 870.61 650.464 870.61 650.464C870.435 650.532 870.248 650.594 870.049 650.625C869.846 650.656 869.624 650.672 869.386 650.672C868.801 650.672 868.337 650.498 868.004 650.155C867.671 649.811 867.484 649.255 867.486 648.503C867.488 647.819 867.652 647.304 867.949 646.912C868.243 646.522 868.692 646.322 869.29 646.322C869.788 646.322 870.168 646.38 870.566 646.505C870.566 646.505 870.662 646.546 870.707 646.422C870.812 646.128 870.891 645.918 871.003 645.596C871.036 645.504 870.957 645.465 870.929 645.454C870.772 645.393 870.402 645.293 870.123 645.251C869.862 645.211 869.556 645.19 869.216 645.19C868.709 645.19 868.256 645.276 867.869 645.449C867.483 645.621 867.156 645.858 866.897 646.153C866.637 646.449 866.44 646.803 866.309 647.203C866.178 647.602 866.112 648.04 866.112 648.503C866.112 649.505 866.382 650.315 866.916 650.909C867.45 651.504 868.253 651.806 869.301 651.806C869.92 651.806 870.555 651.681 871.012 651.501C871.012 651.501 871.099 651.458 871.061 651.357L870.764 650.538ZM872.878 647.837C872.935 647.448 873.043 647.125 873.209 646.873C873.459 646.49 873.841 646.28 874.378 646.28C874.914 646.28 875.269 646.491 875.523 646.873C875.692 647.125 875.766 647.463 875.795 647.837H872.878ZM876.946 646.982C876.843 646.595 876.589 646.204 876.422 646.025C876.159 645.742 875.901 645.544 875.646 645.433C875.312 645.29 874.912 645.196 874.474 645.196C873.964 645.196 873.5 645.281 873.124 645.458C872.747 645.635 872.431 645.876 872.183 646.177C871.934 646.476 871.747 646.833 871.629 647.238C871.509 647.641 871.449 648.081 871.449 648.544C871.449 649.015 871.511 649.455 871.635 649.85C871.759 650.248 871.958 650.598 872.228 650.889C872.496 651.181 872.842 651.411 873.256 651.57C873.667 651.729 874.167 651.811 874.74 651.81C875.922 651.806 876.544 651.543 876.8 651.401C876.845 651.376 876.888 651.332 876.834 651.205L876.567 650.457C876.527 650.345 876.413 650.386 876.413 650.386C876.12 650.495 875.704 650.69 874.734 650.688C874.1 650.687 873.63 650.5 873.335 650.207C873.033 649.908 872.885 649.468 872.859 648.846L876.949 648.85C876.949 648.85 877.056 648.848 877.067 648.744C877.071 648.7 877.208 647.904 876.946 646.982ZM840.125 647.837C840.183 647.448 840.29 647.125 840.456 646.873C840.706 646.49 841.088 646.28 841.625 646.28C842.161 646.28 842.516 646.491 842.772 646.873C842.939 647.125 843.013 647.463 843.042 647.837H840.125ZM844.192 646.982C844.089 646.595 843.836 646.204 843.669 646.025C843.406 645.742 843.148 645.544 842.893 645.433C842.559 645.29 842.16 645.196 841.721 645.196C841.212 645.196 840.747 645.281 840.371 645.458C839.995 645.635 839.678 645.876 839.43 646.177C839.181 646.476 838.994 646.833 838.876 647.238C838.757 647.641 838.696 648.081 838.696 648.544C838.696 649.015 838.758 649.455 838.882 649.85C839.007 650.248 839.206 650.598 839.475 650.889C839.743 651.181 840.089 651.411 840.503 651.57C840.914 651.729 841.414 651.811 841.988 651.81C843.169 651.806 843.791 651.543 844.047 651.401C844.092 651.376 844.136 651.332 844.081 651.205L843.815 650.457C843.774 650.345 843.66 650.386 843.66 650.386C843.368 650.495 842.953 650.69 841.981 650.688C841.348 650.687 840.877 650.5 840.583 650.207C840.28 649.908 840.132 649.468 840.106 648.846L844.196 648.85C844.196 648.85 844.303 648.848 844.314 648.744C844.318 648.7 844.455 647.904 844.192 646.982ZM831.285 650.515C831.125 650.388 831.103 650.355 831.049 650.273C830.969 650.147 830.927 649.968 830.927 649.741C830.927 649.381 831.046 649.123 831.292 648.949C831.289 648.95 831.644 648.643 832.478 648.654C833.064 648.662 833.588 648.748 833.588 648.748V650.608H833.589C833.589 650.608 833.069 650.719 832.484 650.754C831.652 650.805 831.282 650.514 831.285 650.515ZM832.912 647.642C832.747 647.63 832.531 647.623 832.274 647.623C831.923 647.623 831.585 647.667 831.267 647.752C830.947 647.838 830.66 647.971 830.413 648.148C830.166 648.324 829.963 648.555 829.82 648.823C829.675 649.092 829.602 649.41 829.602 649.765C829.602 650.127 829.664 650.442 829.789 650.699C829.913 650.957 830.093 651.173 830.322 651.338C830.549 651.504 830.83 651.626 831.155 651.699C831.476 651.773 831.84 651.81 832.238 651.81C832.657 651.81 833.075 651.776 833.48 651.706C833.881 651.638 834.374 651.538 834.51 651.507C834.606 651.484 834.702 651.46 834.797 651.434C834.898 651.409 834.89 651.3 834.89 651.3L834.888 647.56C834.888 646.74 834.669 646.132 834.238 645.755C833.809 645.379 833.177 645.189 832.36 645.189C832.053 645.189 831.56 645.231 831.264 645.291C831.264 645.291 830.371 645.464 830.003 645.751C830.003 645.751 829.922 645.801 829.966 645.914L830.256 646.692C830.292 646.792 830.39 646.758 830.39 646.758C830.39 646.758 830.421 646.746 830.457 646.725C831.244 646.297 832.239 646.31 832.239 646.31C832.681 646.31 833.021 646.398 833.25 646.574C833.473 646.745 833.587 647.003 833.587 647.548V647.721C833.235 647.671 832.912 647.642 832.912 647.642ZM865.898 645.534C865.929 645.442 865.864 645.398 865.837 645.388C865.767 645.361 865.42 645.287 865.151 645.27C864.638 645.239 864.352 645.325 864.097 645.44C863.844 645.554 863.562 645.739 863.405 645.95V645.452C863.405 645.383 863.356 645.327 863.288 645.327H862.239C862.171 645.327 862.122 645.383 862.122 645.452V651.552C862.122 651.62 862.178 651.677 862.246 651.677H863.321C863.354 651.676 863.385 651.663 863.408 651.64C863.432 651.616 863.445 651.585 863.444 651.552V648.504C863.444 648.095 863.49 647.687 863.58 647.431C863.669 647.178 863.789 646.975 863.938 646.829C864.088 646.684 864.258 646.583 864.444 646.525C864.633 646.467 864.844 646.448 864.992 646.448C865.206 646.448 865.442 646.503 865.442 646.503C865.52 646.512 865.564 646.464 865.59 646.393C865.661 646.206 865.86 645.646 865.898 645.534Z" fill="white"/>
<path d="M855.813 642.713C855.682 642.673 855.563 642.646 855.409 642.616C855.252 642.588 855.065 642.574 854.853 642.574C854.113 642.574 853.53 642.783 853.121 643.195C852.714 643.605 852.437 644.23 852.299 645.051L852.248 645.327H851.32C851.32 645.327 851.207 645.323 851.183 645.446L851.031 646.297C851.02 646.378 851.056 646.429 851.164 646.429H852.068L851.151 651.547C851.08 651.959 850.997 652.298 850.906 652.555C850.816 652.808 850.729 652.998 850.62 653.137C850.516 653.269 850.417 653.368 850.246 653.425C850.106 653.472 849.943 653.495 849.765 653.495C849.666 653.495 849.535 653.478 849.437 653.458C849.341 653.439 849.289 653.418 849.216 653.387C849.216 653.387 849.111 653.347 849.068 653.452C849.035 653.54 848.794 654.202 848.765 654.284C848.737 654.365 848.777 654.428 848.828 654.447C848.949 654.49 849.038 654.518 849.202 654.557C849.429 654.61 849.621 654.613 849.801 654.613C850.177 654.613 850.521 654.56 850.805 654.457C851.091 654.354 851.34 654.174 851.561 653.931C851.799 653.667 851.949 653.392 852.092 653.015C852.233 652.643 852.355 652.181 852.451 651.642L853.373 646.429H854.72C854.72 646.429 854.833 646.433 854.857 646.309L855.009 645.459C855.019 645.378 854.985 645.327 854.876 645.327H853.568C853.575 645.298 853.634 644.838 853.784 644.405C853.849 644.221 853.969 644.071 854.071 643.968C854.171 643.868 854.287 643.797 854.414 643.755C854.543 643.713 854.691 643.693 854.853 643.693C854.975 643.693 855.097 643.707 855.188 643.726C855.315 643.753 855.364 643.767 855.398 643.777C855.531 643.818 855.549 643.778 855.575 643.714L855.888 642.856C855.92 642.763 855.841 642.724 855.813 642.713ZM837.542 651.558C837.542 651.626 837.493 651.681 837.425 651.681H836.34C836.272 651.681 836.224 651.626 836.224 651.558V642.83C836.224 642.761 836.272 642.706 836.34 642.706H837.425C837.493 642.706 837.542 642.761 837.542 642.83V651.558Z" fill="white"/>
<g opacity="0.05" filter="url(#filter2_d_0_1)">
<rect x="147.169" y="74" width="192.427" height="192.427" rx="96.2134" fill="#FF4A00"/>
</g>
<path d="M251.804 169.92C251.805 172.438 251.351 174.936 250.463 177.293C248.105 178.18 245.607 178.635 243.088 178.636H243.059C240.465 178.632 237.98 178.158 235.686 177.294C234.798 174.937 234.343 172.439 234.344 169.92V169.89C234.343 167.372 234.797 164.875 235.684 162.518C238.041 161.629 240.54 161.174 243.059 161.175H243.089C245.608 161.174 248.106 161.629 250.463 162.518C251.351 164.874 251.805 167.372 251.804 169.889V169.92L251.804 169.92ZM277.509 164.085H257.125L271.538 149.672C270.406 148.083 269.145 146.591 267.765 145.212V145.211C266.386 143.833 264.894 142.572 263.306 141.441L248.893 155.855V135.471C246.976 135.149 245.035 134.986 243.092 134.985H243.056C241.078 134.986 239.142 135.154 237.254 135.471V155.855L222.841 141.441C221.252 142.572 219.762 143.833 218.384 145.213L218.376 145.218C216.999 146.596 215.739 148.085 214.609 149.672L229.024 164.085H208.641C208.641 164.085 208.154 167.913 208.154 169.893V169.917C208.154 171.896 208.322 173.836 208.641 175.725H229.024L214.609 190.138C216.877 193.32 219.659 196.102 222.841 198.37L237.254 183.955V204.34C239.169 204.66 241.107 204.823 243.049 204.825H243.098C245.04 204.823 246.978 204.661 248.893 204.34V183.955L263.307 198.37C264.895 197.239 266.386 195.977 267.765 194.599L267.769 194.596C269.146 193.217 270.407 191.726 271.538 190.138L257.123 175.725H277.509C277.826 173.84 277.992 171.905 277.994 169.93V169.88C277.992 167.904 277.826 165.97 277.509 164.085Z" fill="#FF4A00"/>
<g filter="url(#filter3_d_0_1)">
<rect x="1117.17" y="46" width="226.662" height="226.662" rx="113.331" fill="white"/>
</g>
<path d="M1202.12 171.208C1202.12 176.726 1197.61 181.234 1192.1 181.234C1186.58 181.234 1182.07 176.726 1182.07 171.208C1182.07 165.69 1186.58 161.183 1192.1 161.183H1202.12V171.208Z" fill="#E01E5A"/>
<path d="M1207.18 171.208C1207.18 165.69 1211.69 161.183 1217.21 161.183C1222.72 161.183 1227.23 165.69 1227.23 171.208V196.311C1227.23 201.829 1222.72 206.336 1217.21 206.336C1211.69 206.336 1207.18 201.829 1207.18 196.311V171.208Z" fill="#E01E5A"/>
<path d="M1217.2 130.945C1211.68 130.945 1207.18 126.437 1207.18 120.92C1207.18 115.402 1211.68 110.894 1217.2 110.894C1222.72 110.894 1227.23 115.402 1227.23 120.92V130.945H1217.2Z" fill="#36C5F0"/>
<path d="M1217.2 136C1222.72 136 1227.23 140.507 1227.23 146.025C1227.23 151.543 1222.72 156.051 1217.2 156.051H1192.1C1186.58 156.051 1182.07 151.543 1182.07 146.025C1182.07 140.507 1186.58 136 1192.1 136H1217.2Z" fill="#36C5F0"/>
<path d="M1257.45 146.025C1257.45 140.507 1261.96 136 1267.48 136C1272.99 136 1277.5 140.507 1277.5 146.025C1277.5 151.543 1272.99 156.051 1267.48 156.051H1257.45V146.025Z" fill="#2EB67D"/>
<path d="M1252.4 146.022C1252.4 151.54 1247.89 156.048 1242.37 156.048C1236.85 156.048 1232.34 151.54 1232.34 146.022V120.92C1232.34 115.402 1236.85 110.894 1242.37 110.894C1247.89 110.894 1252.4 115.402 1252.4 120.92V146.022Z" fill="#2EB67D"/>
<path d="M1242.38 186.284C1247.9 186.284 1252.4 190.792 1252.4 196.31C1252.4 201.828 1247.9 206.335 1242.38 206.335C1236.86 206.335 1232.35 201.828 1232.35 196.31V186.284H1242.38Z" fill="#ECB22E"/>
<path d="M1242.38 181.234C1236.86 181.234 1232.36 176.726 1232.36 171.208C1232.36 165.69 1236.86 161.183 1242.38 161.183H1267.48C1273 161.183 1277.51 165.69 1277.51 171.208C1277.51 176.726 1273 181.234 1267.48 181.234H1242.38Z" fill="#ECB22E"/>
<path opacity="0.03" d="M58.2945 594.5C58.2945 552.871 92.041 519.125 133.669 519.125C175.298 519.125 209.044 552.871 209.044 594.5C209.044 636.128 175.298 669.875 133.669 669.875C92.041 669.875 58.2945 636.128 58.2945 594.5Z" fill="#B92B27"/>
<path fill-rule="evenodd" clip-rule="evenodd" d="M131.785 610.547C133.379 610.547 134.988 610.322 136.504 609.918L136.499 609.92C138.303 613.014 140.714 615.654 145.265 615.654C152.786 615.654 153.618 608.727 153.464 607.058H150.772C150.633 608.311 149.797 609.905 147.735 609.905C145.842 609.905 144.481 608.59 143.166 606.612C147.253 603.446 150.063 598.55 150.063 592.525C150.063 581.691 141.142 574.399 131.783 574.399C122.578 574.399 113.57 581.747 113.57 592.525C113.57 603.204 122.581 610.547 131.785 610.547ZM128.413 600.912C131.685 600.912 133.361 603.756 134.789 606.566C133.876 606.834 132.881 606.953 131.783 606.953C124.873 606.953 121.882 602.075 121.882 592.525C121.882 582.923 124.873 577.994 131.783 577.994C138.796 577.994 141.797 582.923 141.797 592.525C141.797 596.369 141.297 599.473 140.239 601.768C138.455 599.081 136.21 596.967 131.834 596.967C129.021 596.967 126.832 597.89 125.481 599.056L126.59 601.273C127.163 601.015 127.789 600.912 128.413 600.912Z" fill="#B92B27"/>
<g opacity="0.05" filter="url(#filter4_d_0_1)">
<rect x="970.169" y="467" width="93.8066" height="93.8066" rx="46.9033" fill="#FF7A59"/>
</g>
<path d="M1024.7 509.051V504.686C1025.28 504.416 1025.76 503.988 1026.11 503.452C1026.45 502.916 1026.63 502.293 1026.64 501.656V501.556C1026.64 499.699 1025.13 498.195 1023.28 498.195H1023.18C1021.32 498.195 1019.81 499.699 1019.81 501.556V501.656C1019.82 502.293 1020 502.916 1020.34 503.452C1020.69 503.988 1021.18 504.416 1021.75 504.686V509.051C1020.1 509.305 1018.53 509.992 1017.23 511.043L1005.26 501.719C1005.34 501.411 1005.39 501.094 1005.39 500.776C1005.39 500.027 1005.17 499.294 1004.76 498.67C1004.34 498.047 1003.75 497.56 1003.06 497.272C1002.37 496.984 1001.61 496.908 1000.87 497.053C1000.14 497.198 999.461 497.557 998.93 498.086C998.4 498.615 998.038 499.29 997.89 500.024C997.743 500.759 997.817 501.52 998.103 502.213C998.388 502.905 998.873 503.498 999.495 503.915C1000.12 504.332 1000.85 504.555 1001.6 504.556C1002.25 504.553 1002.9 504.378 1003.46 504.048L1015.25 513.221C1013.08 516.495 1013.14 520.762 1015.4 523.976L1011.81 527.563C1011.52 527.47 1011.22 527.421 1010.92 527.417C1009.2 527.418 1007.81 528.811 1007.81 530.528C1007.81 532.245 1009.2 533.636 1010.92 533.637C1012.64 533.637 1014.03 532.246 1014.03 530.529C1014.03 530.225 1013.98 529.923 1013.88 529.633L1017.43 526.085C1020.6 528.525 1024.95 528.735 1028.34 526.612C1031.73 524.489 1033.44 520.481 1032.63 516.565C1031.82 512.648 1028.65 509.651 1024.7 509.051V509.051ZM1023.23 523.407C1022.57 523.424 1021.92 523.311 1021.31 523.072C1020.7 522.833 1020.14 522.475 1019.67 522.018C1019.21 521.56 1018.83 521.014 1018.58 520.41C1018.32 519.806 1018.19 519.157 1018.19 518.502C1018.19 517.846 1018.32 517.197 1018.58 516.593C1018.83 515.989 1019.21 515.443 1019.67 514.985C1020.14 514.528 1020.7 514.17 1021.31 513.931C1021.92 513.693 1022.57 513.579 1023.23 513.596C1025.87 513.689 1027.96 515.856 1027.96 518.498C1027.97 521.14 1025.88 523.309 1023.23 523.404" fill="#FF7A59"/>
<g filter="url(#filter5_d_0_1)">
<rect x="325.169" y="562" width="119.094" height="119.094" rx="59.5468" fill="white"/>
</g>
<path d="M359.345 638.734L368.9 631.415C373.976 638.04 379.37 641.094 385.373 641.094C391.344 641.094 396.585 638.076 401.433 631.503L411.124 638.646C404.13 648.125 395.438 653.133 385.373 653.133C375.341 653.133 366.564 648.157 359.345 638.734Z" fill="url(#paint0_linear_0_1)"/>
<path d="M385.338 606.92L368.331 621.575L360.47 612.458L385.374 590.996L410.082 612.474L402.185 621.559L385.338 606.92Z" fill="url(#paint1_linear_0_1)"/>
<g opacity="0.1" filter="url(#filter6_d_0_1)">
<rect x="218.169" y="385" width="92.9909" height="92.9909" rx="46.4955" fill="#55ACEE"/>
</g>
<path d="M264.318 425.849L264.391 427.067L263.161 426.918C258.683 426.346 254.77 424.409 251.449 421.154L249.825 419.54L249.406 420.732C248.521 423.39 249.086 426.197 250.932 428.085C251.916 429.129 251.695 429.278 249.997 428.657C249.406 428.458 248.89 428.309 248.84 428.383C248.668 428.557 249.259 430.818 249.726 431.712C250.366 432.954 251.67 434.171 253.097 434.892L254.303 435.463L252.876 435.488C251.498 435.488 251.449 435.513 251.596 436.034C252.088 437.649 254.032 439.363 256.198 440.108L257.723 440.63L256.394 441.425C254.426 442.568 252.113 443.214 249.8 443.263C248.693 443.288 247.782 443.387 247.782 443.462C247.782 443.71 250.784 445.101 252.531 445.648C257.772 447.263 263.998 446.567 268.673 443.81C271.995 441.847 275.316 437.947 276.867 434.171C277.703 432.159 278.54 428.483 278.54 426.719C278.54 425.576 278.614 425.427 279.992 424.061C280.804 423.266 281.566 422.397 281.714 422.148C281.96 421.676 281.935 421.676 280.68 422.098C278.589 422.844 278.294 422.744 279.327 421.626C280.09 420.832 281 419.391 281 418.968C281 418.894 280.631 419.018 280.213 419.242C279.77 419.49 278.786 419.863 278.048 420.086L276.719 420.509L275.513 419.689C274.849 419.242 273.914 418.745 273.422 418.596C272.167 418.248 270.248 418.298 269.116 418.695C266.04 419.813 264.096 422.695 264.318 425.849Z" fill="#55ACEE"/>
<g opacity="0.05" filter="url(#filter7_d_0_1)">
<rect x="711.169" y="103" width="76" height="76" rx="38" fill="#F95A7A"/>
</g>
<path d="M756.128 140.38C753.372 140.38 751.138 142.614 751.138 145.37C751.138 148.126 753.372 150.361 756.128 150.361C758.884 150.361 761.118 148.126 761.118 145.37C761.118 142.614 758.884 140.38 756.128 140.38ZM743.163 140.38C740.407 140.381 738.173 142.614 738.173 145.37C738.173 148.126 740.407 150.361 743.163 150.361C745.919 150.361 748.154 148.126 748.154 145.37C748.154 142.614 745.919 140.38 743.163 140.38H743.163ZM754.636 134.143C754.636 136.898 752.402 139.133 749.646 139.133C746.889 139.133 744.655 136.898 744.655 134.143C744.655 131.387 746.889 129.152 749.646 129.152C752.402 129.152 754.635 131.387 754.635 134.143H754.636Z" fill="#F95A7A"/>
<g opacity="0.1" filter="url(#filter8_d_0_1)">
<rect x="1131" y="380.285" width="76" height="76" rx="38" fill="#FFA412"/>
</g>
<path d="M1175.96 417.665C1173.2 417.665 1170.97 419.899 1170.97 422.655C1170.97 425.411 1173.2 427.646 1175.96 427.646C1178.72 427.646 1180.95 425.411 1180.95 422.655C1180.95 419.899 1178.72 417.665 1175.96 417.665ZM1163 417.666C1160.24 417.666 1158.01 419.899 1158.01 422.656C1158.01 425.411 1160.24 427.646 1163 427.646C1165.75 427.646 1167.99 425.411 1167.99 422.656C1167.99 419.899 1165.75 417.666 1162.99 417.666H1163ZM1174.47 411.428C1174.47 414.184 1172.23 416.418 1169.48 416.418C1166.72 416.418 1164.49 414.184 1164.49 411.428C1164.49 408.672 1166.72 406.438 1169.48 406.438C1172.23 406.438 1174.47 408.672 1174.47 411.428H1174.47Z" fill="#FFA412"/>
<path opacity="0.05" d="M1160.85 589.154C1160.85 558.52 1185.69 533.686 1216.32 533.686C1246.96 533.686 1271.79 558.52 1271.79 589.154C1271.79 619.789 1246.96 644.623 1216.32 644.623C1185.69 644.623 1160.85 619.789 1160.85 589.154Z" fill="#2681FF"/>
<path d="M1208.32 583.666C1207.73 583.044 1206.82 583.079 1206.43 583.871L1196.87 602.994C1196.69 603.348 1196.71 603.769 1196.92 604.106C1197.13 604.443 1197.49 604.648 1197.89 604.648H1211.2C1211.64 604.658 1212.04 604.411 1212.23 604.016C1215.1 598.08 1213.36 589.054 1208.32 583.666Z" fill="#2681FF"/>
<path d="M1215.33 566.274C1209.98 574.747 1210.34 584.131 1213.86 591.176L1220.28 604.017C1220.47 604.404 1220.87 604.648 1221.3 604.648H1234.62C1235.01 604.649 1235.38 604.443 1235.59 604.106C1235.8 603.769 1235.82 603.348 1235.64 602.994C1235.64 602.994 1217.73 567.164 1217.28 566.267C1216.87 565.465 1215.85 565.454 1215.33 566.274Z" fill="#2681FF"/>
<path opacity="0.1" d="M502.042 125C534.075 125 560.042 99.0325 560.042 67C560.042 34.9675 534.075 9 502.042 9C470.01 9 444.042 34.9675 444.042 67C444.042 99.0325 470.01 125 502.042 125Z" fill="#25D366"/>
<path fill-rule="evenodd" clip-rule="evenodd" d="M503.102 91.3332H503.091C498.729 91.3317 494.442 90.2371 490.635 88.1604L476.816 91.7852L480.514 78.2776C478.233 74.3244 477.033 69.8402 477.035 65.2459C477.041 50.8737 488.734 39.1807 503.102 39.1807C510.075 39.1837 516.62 41.8983 521.542 46.8255C526.463 51.7525 529.172 58.3016 529.169 65.2665C529.163 79.6355 517.474 91.3273 503.102 91.3332ZM491.273 83.4409L492.064 83.9104C495.39 85.8844 499.204 86.9289 503.091 86.9304H503.1C515.042 86.9304 524.761 77.211 524.766 65.2645C524.768 59.4753 522.516 54.032 518.426 49.9367C514.335 45.8414 508.896 43.585 503.109 43.583C491.158 43.583 481.439 53.3014 481.434 65.247C481.432 69.3408 482.578 73.3277 484.746 76.7772L485.262 77.5969L483.073 85.5919L491.273 83.4409ZM515.344 70.8796C515.798 71.0991 516.105 71.2474 516.236 71.466C516.399 71.7376 516.399 73.0417 515.856 74.5634C515.313 76.0847 512.711 77.4733 511.46 77.6602C510.338 77.828 508.918 77.898 507.357 77.4021C506.411 77.102 505.198 76.7012 503.644 76.0301C497.538 73.3936 493.412 67.4755 492.632 66.357C492.577 66.2786 492.539 66.2238 492.518 66.1954L492.512 66.1884C492.168 65.7285 489.858 62.6469 489.858 59.4577C489.858 56.4575 491.332 54.8849 492.01 54.1611C492.057 54.1115 492.1 54.0659 492.138 54.0241C492.735 53.372 493.44 53.209 493.875 53.209C494.309 53.209 494.744 53.213 495.123 53.2321C495.17 53.2344 495.219 53.2341 495.269 53.2338C495.648 53.2316 496.122 53.2288 496.588 54.3501C496.768 54.7817 497.031 55.4214 497.308 56.0961C497.868 57.4606 498.488 58.9681 498.597 59.1863C498.759 59.5123 498.868 59.8925 498.651 60.3274C498.618 60.3926 498.588 60.4542 498.559 60.513C498.396 60.8459 498.276 61.0907 498 61.4139C497.891 61.5409 497.778 61.6779 497.666 61.8149C497.442 62.0878 497.218 62.3607 497.023 62.555C496.697 62.8798 496.357 63.2322 496.737 63.8843C497.117 64.5363 498.424 66.6691 500.36 68.3963C502.442 70.2528 504.251 71.0375 505.168 71.4352C505.347 71.5129 505.492 71.5758 505.598 71.629C506.249 71.9552 506.629 71.9006 507.009 71.466C507.389 71.0314 508.637 69.5641 509.072 68.9122C509.506 68.2603 509.94 68.3689 510.537 68.5862C511.134 68.8037 514.336 70.3792 514.988 70.7052C515.115 70.7689 515.234 70.8263 515.344 70.8796Z" fill="#25D366"/>
<path opacity="0.05" d="M917.43 61.4005C917.43 27.6339 944.803 0.260742 978.57 0.260742C1012.34 0.260742 1039.71 27.6339 1039.71 61.4005C1039.71 95.167 1012.34 122.54 978.57 122.54C944.803 122.54 917.43 95.167 917.43 61.4005Z" fill="#BF2519"/>
<path d="M956.314 60.307C955.268 61.9825 954.827 67.259 955.19 70.7611C955.318 71.9168 955.527 72.8809 955.832 73.4559C956.25 74.2516 956.953 74.7249 957.754 74.754C958.268 74.7801 958.587 74.693 968.252 71.5858C968.252 71.5858 972.547 70.2151 972.564 70.2064C973.636 69.9335 974.356 68.949 974.425 67.6916C974.495 66.4023 973.83 65.264 972.732 64.8516C972.732 64.8516 969.704 63.6174 969.698 63.6174C959.313 59.3342 958.846 59.1657 958.323 59.1599C957.522 59.128 956.81 59.5316 956.314 60.307Z" fill="#BF2519"/>
<path d="M979.545 92.2211C979.713 91.7332 979.734 91.3992 979.763 81.2472C979.763 81.2472 979.786 76.7606 979.789 76.717C979.859 75.6165 979.147 74.6146 977.983 74.1674C976.783 73.7057 975.491 73.9903 974.765 74.8934C974.765 74.8934 972.645 77.4082 972.639 77.4082C965.365 85.9544 965.06 86.3493 964.883 86.8546C964.776 87.1508 964.732 87.4702 964.767 87.7868C964.811 88.2398 965.017 88.687 965.356 89.1052C967.044 91.1089 975.134 94.0854 977.718 93.644C978.616 93.4814 979.269 92.9761 979.545 92.2211Z" fill="#BF2519"/>
<path d="M995.958 88.6865C998.397 87.7137 1003.72 80.9446 1004.09 78.3398C1004.22 77.4338 1003.94 76.6526 1003.31 76.1532C1002.9 75.8454 1002.59 75.7263 992.935 72.5552C992.935 72.5552 988.698 71.1555 988.643 71.1294C987.618 70.7316 986.448 71.1004 985.661 72.0703C984.842 73.0663 984.72 74.3818 985.373 75.3749L987.078 78.1511C992.81 87.461 993.249 88.1202 993.661 88.4425C994.3 88.9449 995.113 89.0262 995.958 88.6865Z" fill="#BF2519"/>
<path d="M990.966 64.7181C1001.94 62.0581 1002.37 61.9187 1002.8 61.6341C1003.46 61.1869 1003.8 60.4377 1003.74 59.5259C1003.74 59.4968 1003.75 59.4649 1003.74 59.4329C1003.46 56.7381 998.737 49.7281 996.411 48.5897C995.586 48.1948 994.761 48.2209 994.076 48.6797C993.652 48.9556 993.341 49.3738 987.464 57.4118C987.464 57.4118 984.809 61.0272 984.777 61.062C984.078 61.9129 984.066 63.1325 984.751 64.1779C985.46 65.2611 986.656 65.7896 987.754 65.4847C987.754 65.4847 987.71 65.5631 987.699 65.5776C988.239 65.3744 989.206 65.1362 990.966 64.7181Z" fill="#BF2519"/>
<path d="M979.949 55.6548C979.76 51.3047 978.451 31.9356 978.297 31.0383C978.076 30.2252 977.44 29.6444 976.528 29.415C973.726 28.7209 963.016 31.7207 961.033 33.7679C960.394 34.4329 960.159 35.2518 960.35 35.9778C960.664 36.6196 973.932 57.4959 973.932 57.4959C975.892 60.6757 977.492 60.182 978.018 60.0165C978.538 59.8567 980.129 59.3631 979.949 55.6548Z" fill="#BF2519"/>
<path d="M584.501 495L601.065 500.833V559.194L624.396 545.712L612.957 540.34L605.741 522.361L642.501 535.288V554.083L601.074 578L584.501 568.772V495Z" fill="#008373"/>
<path opacity="0.07" d="M614.001 630C665.64 630 707.501 588.139 707.501 536.5C707.501 484.861 665.64 443 614.001 443C562.362 443 520.501 484.861 520.501 536.5C520.501 588.139 562.362 630 614.001 630Z" fill="#80A000"/>
<defs>
<filter id="filter0_d_0_1" x="0.169067" y="268" width="230.81" height="230.81" filterUnits="userSpaceOnUse" color-interpolation-filters="sRGB">
<feFlood flood-opacity="0" result="BackgroundImageFix"/>
<feColorMatrix in="SourceAlpha" type="matrix" values="0 0 0 0 0 0 0 0 0 0 0 0 0 0 0 0 0 0 127 0" result="hardAlpha"/>
<feOffset dy="10"/>
<feGaussianBlur stdDeviation="42"/>
<feColorMatrix type="matrix" values="0 0 0 0 0.419608 0 0 0 0 0.482353 0 0 0 0 0.611765 0 0 0 0.2 0"/>
<feBlend mode="normal" in2="BackgroundImageFix" result="effect1_dropShadow_0_1"/>
<feBlend mode="normal" in="SourceGraphic" in2="effect1_dropShadow_0_1" result="shape"/>
</filter>
<filter id="filter1_d_0_1" x="687.829" y="498.281" width="323" height="323" filterUnits="userSpaceOnUse" color-interpolation-filters="sRGB">
<feFlood flood-opacity="0" result="BackgroundImageFix"/>
<feColorMatrix in="SourceAlpha" type="matrix" values="0 0 0 0 0 0 0 0 0 0 0 0 0 0 0 0 0 0 127 0" result="hardAlpha"/>
<feOffset dy="10"/>
<feGaussianBlur stdDeviation="42"/>
<feColorMatrix type="matrix" values="0 0 0 0 0.278431 0 0 0 0 0.32549 0 0 0 0 0.419608 0 0 0 0.1 0"/>
<feBlend mode="normal" in2="BackgroundImageFix" result="effect1_dropShadow_0_1"/>
<feBlend mode="normal" in="SourceGraphic" in2="effect1_dropShadow_0_1" result="shape"/>
</filter>
<filter id="filter2_d_0_1" x="97.1691" y="34" width="292.427" height="292.427" filterUnits="userSpaceOnUse" color-interpolation-filters="sRGB">
<feFlood flood-opacity="0" result="BackgroundImageFix"/>
<feColorMatrix in="SourceAlpha" type="matrix" values="0 0 0 0 0 0 0 0 0 0 0 0 0 0 0 0 0 0 127 0" result="hardAlpha"/>
<feOffset dy="10"/>
<feGaussianBlur stdDeviation="25"/>
<feColorMatrix type="matrix" values="0 0 0 0 0.278431 0 0 0 0 0.32549 0 0 0 0 0.419608 0 0 0 0.15 0"/>
<feBlend mode="normal" in2="BackgroundImageFix" result="effect1_dropShadow_0_1"/>
<feBlend mode="normal" in="SourceGraphic" in2="effect1_dropShadow_0_1" result="shape"/>
</filter>
<filter id="filter3_d_0_1" x="1067.17" y="6" width="326.662" height="326.662" filterUnits="userSpaceOnUse" color-interpolation-filters="sRGB">
<feFlood flood-opacity="0" result="BackgroundImageFix"/>
<feColorMatrix in="SourceAlpha" type="matrix" values="0 0 0 0 0 0 0 0 0 0 0 0 0 0 0 0 0 0 127 0" result="hardAlpha"/>
<feOffset dy="10"/>
<feGaussianBlur stdDeviation="25"/>
<feColorMatrix type="matrix" values="0 0 0 0 0.278431 0 0 0 0 0.32549 0 0 0 0 0.419608 0 0 0 0.05 0"/>
<feBlend mode="normal" in2="BackgroundImageFix" result="effect1_dropShadow_0_1"/>
<feBlend mode="normal" in="SourceGraphic" in2="effect1_dropShadow_0_1" result="shape"/>
</filter>
<filter id="filter4_d_0_1" x="886.169" y="393" width="261.807" height="261.807" filterUnits="userSpaceOnUse" color-interpolation-filters="sRGB">
<feFlood flood-opacity="0" result="BackgroundImageFix"/>
<feColorMatrix in="SourceAlpha" type="matrix" values="0 0 0 0 0 0 0 0 0 0 0 0 0 0 0 0 0 0 127 0" result="hardAlpha"/>
<feOffset dy="10"/>
<feGaussianBlur stdDeviation="42"/>
<feColorMatrix type="matrix" values="0 0 0 0 0.419608 0 0 0 0 0.482353 0 0 0 0 0.611765 0 0 0 0.1 0"/>
<feBlend mode="normal" in2="BackgroundImageFix" result="effect1_dropShadow_0_1"/>
<feBlend mode="normal" in="SourceGraphic" in2="effect1_dropShadow_0_1" result="shape"/>
</filter>
<filter id="filter5_d_0_1" x="241.169" y="488" width="287.094" height="287.094" filterUnits="userSpaceOnUse" color-interpolation-filters="sRGB">
<feFlood flood-opacity="0" result="BackgroundImageFix"/>
<feColorMatrix in="SourceAlpha" type="matrix" values="0 0 0 0 0 0 0 0 0 0 0 0 0 0 0 0 0 0 127 0" result="hardAlpha"/>
<feOffset dy="10"/>
<feGaussianBlur stdDeviation="42"/>
<feColorMatrix type="matrix" values="0 0 0 0 0.278431 0 0 0 0 0.32549 0 0 0 0 0.419608 0 0 0 0.1 0"/>
<feBlend mode="normal" in2="BackgroundImageFix" result="effect1_dropShadow_0_1"/>
<feBlend mode="normal" in="SourceGraphic" in2="effect1_dropShadow_0_1" result="shape"/>
</filter>
<filter id="filter6_d_0_1" x="134.169" y="311" width="260.991" height="260.991" filterUnits="userSpaceOnUse" color-interpolation-filters="sRGB">
<feFlood flood-opacity="0" result="BackgroundImageFix"/>
<feColorMatrix in="SourceAlpha" type="matrix" values="0 0 0 0 0 0 0 0 0 0 0 0 0 0 0 0 0 0 127 0" result="hardAlpha"/>
<feOffset dy="10"/>
<feGaussianBlur stdDeviation="42"/>
<feColorMatrix type="matrix" values="0 0 0 0 0.419608 0 0 0 0 0.482353 0 0 0 0 0.611765 0 0 0 0.1 0"/>
<feBlend mode="normal" in2="BackgroundImageFix" result="effect1_dropShadow_0_1"/>
<feBlend mode="normal" in="SourceGraphic" in2="effect1_dropShadow_0_1" result="shape"/>
</filter>
<filter id="filter7_d_0_1" x="627.169" y="29" width="244" height="244" filterUnits="userSpaceOnUse" color-interpolation-filters="sRGB">
<feFlood flood-opacity="0" result="BackgroundImageFix"/>
<feColorMatrix in="SourceAlpha" type="matrix" values="0 0 0 0 0 0 0 0 0 0 0 0 0 0 0 0 0 0 127 0" result="hardAlpha"/>
<feOffset dy="10"/>
<feGaussianBlur stdDeviation="42"/>
<feColorMatrix type="matrix" values="0 0 0 0 0.419608 0 0 0 0 0.482353 0 0 0 0 0.611765 0 0 0 0.1 0"/>
<feBlend mode="normal" in2="BackgroundImageFix" result="effect1_dropShadow_0_1"/>
<feBlend mode="normal" in="SourceGraphic" in2="effect1_dropShadow_0_1" result="shape"/>
</filter>
<filter id="filter8_d_0_1" x="1047" y="306.285" width="244" height="244" filterUnits="userSpaceOnUse" color-interpolation-filters="sRGB">
<feFlood flood-opacity="0" result="BackgroundImageFix"/>
<feColorMatrix in="SourceAlpha" type="matrix" values="0 0 0 0 0 0 0 0 0 0 0 0 0 0 0 0 0 0 127 0" result="hardAlpha"/>
<feOffset dy="10"/>
<feGaussianBlur stdDeviation="42"/>
<feColorMatrix type="matrix" values="0 0 0 0 0.419608 0 0 0 0 0.482353 0 0 0 0 0.611765 0 0 0 0.1 0"/>
<feBlend mode="normal" in2="BackgroundImageFix" result="effect1_dropShadow_0_1"/>
<feBlend mode="normal" in="SourceGraphic" in2="effect1_dropShadow_0_1" result="shape"/>
</filter>
<linearGradient id="paint0_linear_0_1" x1="359.345" y1="646.185" x2="411.124" y2="646.185" gradientUnits="userSpaceOnUse">
<stop stop-color="#8930FD"/>
<stop offset="1" stop-color="#49CCF9"/>
</linearGradient>
<linearGradient id="paint1_linear_0_1" x1="360.47" y1="611.793" x2="410.082" y2="611.793" gradientUnits="userSpaceOnUse">
<stop stop-color="#FF02F0"/>
<stop offset="1" stop-color="#FFC800"/>
</linearGradient>
</defs>
</svg>
