<svg width="375" height="413" viewBox="0 0 375 413" fill="none" xmlns="http://www.w3.org/2000/svg">
<g filter="url(#filter0_d_0_1)">
<rect x="11.5007" y="100.774" width="17.5515" height="17.5515" rx="8.77577" fill="white"/>
</g>
<path d="M19.8332 105.993L16.7044 107.288C16.5304 107.36 16.5322 107.607 16.7073 107.677L19.8492 108.922C20.1253 109.032 20.4327 109.032 20.7087 108.922L23.8506 107.677C24.0257 107.607 24.0275 107.36 23.8535 107.288L20.7247 105.993C20.4393 105.875 20.1186 105.875 19.8332 105.993Z" fill="#FFBF00"/>
<path d="M20.5632 109.603V112.715C20.5632 112.863 20.7125 112.965 20.8501 112.91L24.3511 111.551C24.4311 111.52 24.4835 111.442 24.4835 111.357V108.244C24.4835 108.096 24.3342 107.995 24.1966 108.049L20.6956 109.408C20.6157 109.44 20.5632 109.517 20.5632 109.603Z" fill="#26B5F8"/>
<path d="M19.7449 109.764L18.7059 110.266L18.6004 110.317L16.4071 111.368C16.268 111.435 16.0906 111.334 16.0906 111.179V108.258C16.0906 108.202 16.1192 108.154 16.1576 108.118C16.1737 108.102 16.1919 108.088 16.2107 108.078C16.2631 108.046 16.3379 108.038 16.4015 108.063L19.7274 109.381C19.8965 109.448 19.9098 109.685 19.7449 109.764Z" fill="#ED3049"/>
<path d="M19.7434 109.764L18.7044 110.266L16.1561 108.118C16.1722 108.102 16.1903 108.088 16.2092 108.078C16.2616 108.046 16.3364 108.038 16.3999 108.063L19.7259 109.381C19.895 109.448 19.9083 109.685 19.7434 109.764Z" fill="black" fill-opacity="0.25"/>
<g opacity="0.05" filter="url(#filter1_d_0_1)">
<rect x="29.1056" y="25.8843" width="53.7717" height="53.7717" rx="26.8859" fill="#FF4A00"/>
</g>
<path d="M58.3448 52.688C58.3451 53.3917 58.2182 54.0896 57.9701 54.7481C57.3114 54.9962 56.6133 55.1233 55.9094 55.1234H55.9011C55.1763 55.1225 54.4818 54.99 53.841 54.7484C53.5927 54.0899 53.4657 53.3918 53.4659 52.688V52.6794C53.4656 51.9759 53.5924 51.2781 53.8402 50.6196C54.4989 50.3711 55.1972 50.2439 55.9012 50.2442H55.9094C56.6134 50.2439 57.3116 50.371 57.9702 50.6195C58.2183 51.2779 58.3452 51.9758 58.3449 52.6794V52.6879L58.3448 52.688ZM65.5278 51.0574H59.8319L63.8593 47.0298C63.5432 46.5857 63.1905 46.1688 62.8051 45.7834V45.7831C62.4196 45.3981 62.0029 45.0458 61.5591 44.7299L57.5314 48.7575V43.0616C56.9957 42.9715 56.4535 42.9261 55.9103 42.9258H55.9002C55.3477 42.9261 54.8065 42.973 54.2791 43.0616V48.7575L50.2514 44.7299C49.8076 45.0457 49.391 45.3983 49.006 45.7838L49.0039 45.7853C48.6191 46.1702 48.267 46.5865 47.9512 47.0298L51.9791 51.0574H46.2833C46.2833 51.0574 46.1475 52.1272 46.1475 52.6804V52.6871C46.1475 53.2402 46.1943 53.7823 46.2833 54.31H51.9792L47.9512 58.3377C48.5849 59.2269 49.3622 60.0043 50.2514 60.6379L54.2791 56.6099V62.3061C54.8142 62.3958 55.3558 62.4411 55.8983 62.4417H55.9121C56.4547 62.4412 56.9962 62.3958 57.5313 62.3061V56.6099L61.5594 60.6379C62.0031 60.3218 62.4198 59.9694 62.8051 59.5843L62.806 59.5834C63.1909 59.198 63.5432 58.7813 63.8593 58.3377L59.8313 54.31H65.5278C65.6165 53.7832 65.6627 53.2427 65.6633 52.6908V52.6766C65.6627 52.1247 65.6165 51.5842 65.5278 51.0574Z" fill="#FF4A00"/>
<g filter="url(#filter2_d_0_1)">
<rect x="300.161" y="18.0601" width="63.3385" height="63.3385" rx="31.6692" fill="white"/>
</g>
<path d="M323.9 53.0481C323.9 54.59 322.641 55.8496 321.099 55.8496C319.557 55.8496 318.297 54.59 318.297 53.0481C318.297 51.5062 319.557 50.2466 321.099 50.2466H323.9V53.0481Z" fill="#E01E5A"/>
<path d="M325.314 53.0476C325.314 51.5057 326.573 50.2461 328.115 50.2461C329.657 50.2461 330.917 51.5057 330.917 53.0476V60.0623C330.917 61.6042 329.657 62.8638 328.115 62.8638C326.573 62.8638 325.314 61.6042 325.314 60.0623V53.0476Z" fill="#E01E5A"/>
<path d="M328.114 41.7969C326.572 41.7969 325.312 40.5373 325.312 38.9954C325.312 37.4534 326.572 36.1938 328.114 36.1938C329.656 36.1938 330.915 37.4534 330.915 38.9954V41.7969H328.114Z" fill="#36C5F0"/>
<path d="M328.113 43.2095C329.655 43.2095 330.915 44.4691 330.915 46.011C330.915 47.5529 329.655 48.8125 328.113 48.8125H321.099C319.557 48.8125 318.297 47.5529 318.297 46.011C318.297 44.4691 319.557 43.2095 321.099 43.2095H328.113Z" fill="#36C5F0"/>
<path d="M339.359 46.011C339.359 44.4691 340.619 43.2095 342.161 43.2095C343.703 43.2095 344.963 44.4691 344.963 46.011C344.963 47.5529 343.703 48.8125 342.161 48.8125H339.359V46.011Z" fill="#2EB67D"/>
<path d="M337.947 46.0101C337.947 47.552 336.688 48.8116 335.146 48.8116C333.604 48.8116 332.344 47.552 332.344 46.0101V38.9954C332.344 37.4534 333.604 36.1938 335.146 36.1938C336.688 36.1938 337.947 37.4534 337.947 38.9954V46.0101Z" fill="#2EB67D"/>
<path d="M335.149 57.2612C336.691 57.2612 337.951 58.5208 337.951 60.0628C337.951 61.6047 336.691 62.8643 335.149 62.8643C333.607 62.8643 332.348 61.6047 332.348 60.0628V57.2612H335.149Z" fill="#ECB22E"/>
<path d="M335.149 55.8501C333.607 55.8501 332.348 54.5905 332.348 53.0486C332.348 51.5067 333.607 50.2471 335.149 50.2471H342.164C343.706 50.2471 344.965 51.5067 344.965 53.0486C344.965 54.5905 343.706 55.8501 342.164 55.8501H335.149Z" fill="#ECB22E"/>
<g opacity="0.05" filter="url(#filter3_d_0_1)">
<rect x="186.708" y="33.9878" width="21.2374" height="21.2374" rx="10.6187" fill="#F95A7A"/>
</g>
<path d="M199.271 44.4334C198.501 44.4334 197.877 45.0577 197.877 45.8278C197.877 46.598 198.501 47.2224 199.271 47.2224C200.041 47.2224 200.665 46.598 200.665 45.8278C200.665 45.0577 200.041 44.4334 199.271 44.4334ZM195.648 44.4335C194.878 44.4336 194.254 45.0577 194.254 45.8279C194.254 46.598 194.878 47.2223 195.648 47.2223C196.418 47.2223 197.043 46.598 197.043 45.8279C197.043 45.0577 196.418 44.4335 195.648 44.4335H195.648ZM198.854 42.6904C198.854 43.4605 198.23 44.0849 197.46 44.0849C196.689 44.0849 196.065 43.4605 196.065 42.6904C196.065 41.9202 196.689 41.2959 197.46 41.2959C198.23 41.2959 198.854 41.9202 198.854 42.6904H198.854Z" fill="#F95A7A"/>
<path opacity="0.1" d="M128.269 40.1357C137.22 40.1357 144.477 32.8794 144.477 23.9282C144.477 14.9771 137.22 7.7207 128.269 7.7207C119.318 7.7207 112.062 14.9771 112.062 23.9282C112.062 32.8794 119.318 40.1357 128.269 40.1357Z" fill="#25D366"/>
<path fill-rule="evenodd" clip-rule="evenodd" d="M128.565 30.7283H128.562C127.343 30.7279 126.145 30.422 125.082 29.8417L121.22 30.8546L122.253 27.08C121.616 25.9753 121.281 24.7223 121.281 23.4385C121.283 19.4223 124.55 16.1548 128.565 16.1548C130.514 16.1556 132.343 16.9142 133.718 18.2911C135.093 19.6678 135.85 21.4979 135.85 23.4442C135.848 27.4595 132.582 30.7267 128.565 30.7283ZM125.26 28.5227L125.481 28.6539C126.41 29.2055 127.476 29.4974 128.562 29.4978H128.565C131.902 29.4978 134.618 26.7818 134.619 23.4435C134.619 21.8258 133.99 20.3047 132.847 19.1603C131.704 18.0159 130.184 17.3854 128.567 17.3848C125.228 17.3848 122.512 20.1006 122.51 23.4386C122.51 24.5826 122.83 25.6967 123.436 26.6606L123.58 26.8897L122.968 29.1238L125.26 28.5227ZM131.986 25.0127C132.113 25.074 132.199 25.1154 132.235 25.1765C132.281 25.2524 132.281 25.6168 132.129 26.0421C131.978 26.4672 131.25 26.8552 130.901 26.9074C130.587 26.9543 130.19 26.9739 129.754 26.8353C129.49 26.7514 129.151 26.6395 128.717 26.4519C127.011 25.7152 125.857 24.0614 125.64 23.7489C125.624 23.727 125.614 23.7117 125.608 23.7037L125.606 23.7017C125.51 23.5732 124.864 22.7121 124.864 21.8209C124.864 20.9826 125.276 20.5431 125.466 20.3408C125.479 20.327 125.491 20.3142 125.501 20.3026C125.668 20.1203 125.865 20.0748 125.987 20.0748C126.108 20.0748 126.23 20.0759 126.336 20.0812C126.349 20.0819 126.362 20.0818 126.376 20.0817C126.482 20.0811 126.615 20.0803 126.745 20.3937C126.795 20.5143 126.869 20.693 126.946 20.8816C127.103 21.2629 127.276 21.6841 127.306 21.7451C127.352 21.8362 127.382 21.9424 127.321 22.064C127.312 22.0822 127.304 22.0994 127.296 22.1158C127.25 22.2088 127.217 22.2773 127.139 22.3676C127.109 22.4031 127.078 22.4414 127.046 22.4796C126.984 22.5559 126.921 22.6321 126.866 22.6864C126.775 22.7772 126.68 22.8757 126.787 23.0579C126.893 23.2401 127.258 23.8361 127.799 24.3187C128.381 24.8375 128.886 25.0568 129.143 25.1679C129.193 25.1896 129.233 25.2072 129.263 25.2221C129.445 25.3132 129.551 25.298 129.657 25.1765C129.763 25.0551 130.112 24.6451 130.233 24.4629C130.355 24.2807 130.476 24.3111 130.643 24.3718C130.81 24.4326 131.705 24.8728 131.887 24.9639C131.922 24.9817 131.955 24.9978 131.986 25.0127Z" fill="#25D366"/>
<path opacity="0.05" d="M244.346 22.3632C244.346 12.9275 251.995 5.27832 261.43 5.27832C270.866 5.27832 278.515 12.9275 278.515 22.3632C278.515 31.7989 270.866 39.4481 261.43 39.4481C251.995 39.4481 244.346 31.7989 244.346 22.3632Z" fill="#BF2519"/>
<path d="M255.211 22.0578C254.919 22.5261 254.796 24.0005 254.897 24.9791C254.933 25.3021 254.991 25.5715 255.077 25.7322C255.193 25.9545 255.39 26.0868 255.614 26.0949C255.757 26.1022 255.847 26.0779 258.547 25.2096C258.547 25.2096 259.747 24.8266 259.752 24.8241C260.052 24.7479 260.253 24.4728 260.272 24.1214C260.292 23.7611 260.106 23.443 259.799 23.3278C259.799 23.3278 258.953 22.9829 258.951 22.9829C256.05 21.786 255.919 21.7389 255.773 21.7373C255.549 21.7284 255.35 21.8412 255.211 22.0578Z" fill="#BF2519"/>
<path d="M261.703 30.9758C261.75 30.8395 261.756 30.7462 261.764 27.9093C261.764 27.9093 261.77 26.6556 261.771 26.6434C261.791 26.3358 261.592 26.0559 261.266 25.9309C260.931 25.8019 260.57 25.8814 260.367 26.1338C260.367 26.1338 259.775 26.8365 259.773 26.8365C257.741 29.2247 257.655 29.335 257.606 29.4762C257.576 29.559 257.564 29.6483 257.573 29.7367C257.586 29.8633 257.643 29.9883 257.738 30.1051C258.21 30.665 260.47 31.4968 261.193 31.3734C261.443 31.328 261.626 31.1868 261.703 30.9758Z" fill="#BF2519"/>
<path d="M266.29 29.988C266.971 29.7161 268.458 27.8246 268.563 27.0967C268.599 26.8435 268.52 26.6252 268.345 26.4856C268.231 26.3996 268.144 26.3664 265.445 25.4802C265.445 25.4802 264.261 25.0891 264.246 25.0818C263.959 24.9706 263.632 25.0737 263.412 25.3447C263.183 25.6231 263.149 25.9906 263.332 26.2682L263.808 27.0439C265.41 29.6455 265.533 29.8297 265.648 29.9198C265.826 30.0602 266.053 30.0829 266.29 29.988Z" fill="#BF2519"/>
<path d="M264.895 23.2906C267.962 22.5473 268.08 22.5083 268.201 22.4288C268.387 22.3038 268.48 22.0945 268.464 21.8397C268.464 21.8315 268.466 21.8226 268.464 21.8137C268.386 21.0606 267.066 19.1018 266.416 18.7837C266.186 18.6733 265.955 18.6806 265.764 18.8088C265.645 18.8859 265.558 19.0028 263.916 21.2489C263.916 21.2489 263.174 22.2592 263.165 22.2689C262.97 22.5067 262.966 22.8475 263.158 23.1396C263.356 23.4423 263.69 23.59 263.997 23.5048C263.997 23.5048 263.985 23.5267 263.982 23.5308C264.133 23.474 264.403 23.4074 264.895 23.2906Z" fill="#BF2519"/>
<path d="M261.816 20.7577C261.763 19.5421 261.397 14.1296 261.354 13.8788C261.293 13.6516 261.115 13.4893 260.86 13.4252C260.077 13.2313 257.084 14.0695 256.53 14.6416C256.352 14.8274 256.286 15.0563 256.339 15.2591C256.427 15.4385 260.135 21.2721 260.135 21.2721C260.682 22.1607 261.13 22.0228 261.276 21.9765C261.422 21.9319 261.866 21.7939 261.816 20.7577Z" fill="#BF2519"/>
<path opacity="0.03" d="M98.1259 76.5C98.1259 69.6655 103.666 64.125 110.501 64.125C117.335 64.125 122.876 69.6655 122.876 76.5C122.876 83.3345 117.335 88.875 110.501 88.875C103.666 88.875 98.1259 83.3345 98.1259 76.5Z" fill="#B92B27"/>
<path fill-rule="evenodd" clip-rule="evenodd" d="M110.192 79.1343C110.453 79.1343 110.717 79.0975 110.966 79.0311L110.965 79.0315C111.262 79.5394 111.657 79.9729 112.405 79.9729C113.639 79.9729 113.776 78.8355 113.751 78.5616H113.309C113.286 78.7673 113.149 79.0289 112.81 79.0289C112.499 79.0289 112.276 78.8131 112.06 78.4884C112.731 77.9686 113.192 77.1647 113.192 76.1755C113.192 74.3968 111.728 73.1997 110.191 73.1997C108.68 73.1997 107.201 74.4061 107.201 76.1755C107.201 77.9288 108.68 79.1343 110.192 79.1343ZM109.638 77.5526C110.175 77.5526 110.45 78.0195 110.685 78.4809C110.535 78.5249 110.371 78.5444 110.191 78.5444C109.057 78.5444 108.566 77.7435 108.566 76.1756C108.566 74.5992 109.057 73.7899 110.191 73.7899C111.342 73.7899 111.835 74.5992 111.835 76.1756C111.835 76.8067 111.753 77.3164 111.58 77.6931C111.287 77.2521 110.918 76.905 110.2 76.905C109.738 76.905 109.378 77.0565 109.157 77.2478L109.339 77.6119C109.433 77.5695 109.535 77.5526 109.638 77.5526Z" fill="#B92B27"/>
<g opacity="0.1" filter="url(#filter4_d_0_1)">
<rect x="201.001" y="344" width="33" height="33" rx="16.5" fill="#00A1E0"/>
</g>
<path d="M216.178 356.44C216.662 355.935 217.337 355.622 218.083 355.622C219.074 355.622 219.939 356.175 220.4 356.996C220.801 356.817 221.244 356.718 221.71 356.718C223.499 356.718 224.949 358.18 224.949 359.985C224.949 361.789 223.499 363.251 221.71 363.251C221.496 363.252 221.282 363.23 221.072 363.188C220.666 363.912 219.893 364.401 219.006 364.401C218.634 364.401 218.283 364.315 217.97 364.162C217.559 365.13 216.601 365.808 215.484 365.808C214.321 365.808 213.33 365.072 212.949 364.04C212.783 364.075 212.611 364.094 212.434 364.094C211.049 364.094 209.927 362.96 209.927 361.56C209.927 360.623 210.431 359.804 211.18 359.366C211.026 359.011 210.94 358.619 210.94 358.207C210.94 356.598 212.247 355.293 213.858 355.293C214.804 355.293 215.645 355.743 216.178 356.44Z" fill="#00A1E0"/>
<path d="M212.102 360.746C212.093 360.77 212.106 360.775 212.109 360.78C212.137 360.8 212.166 360.815 212.195 360.832C212.348 360.913 212.492 360.937 212.644 360.937C212.952 360.937 213.143 360.773 213.143 360.509V360.504C213.143 360.26 212.927 360.171 212.725 360.107L212.698 360.099C212.545 360.049 212.414 360.006 212.414 359.906V359.9C212.414 359.814 212.491 359.751 212.61 359.751C212.743 359.751 212.9 359.795 213.002 359.851C213.002 359.851 213.031 359.87 213.042 359.841C213.048 359.826 213.1 359.688 213.105 359.673C213.111 359.656 213.101 359.645 213.09 359.638C212.974 359.568 212.814 359.52 212.649 359.52L212.618 359.52C212.336 359.52 212.139 359.69 212.139 359.934V359.939C212.139 360.197 212.356 360.28 212.56 360.338L212.592 360.349C212.741 360.394 212.868 360.433 212.868 360.538V360.543C212.868 360.638 212.785 360.709 212.651 360.709C212.599 360.709 212.434 360.708 212.254 360.595C212.233 360.582 212.22 360.573 212.204 360.563C212.195 360.558 212.173 360.548 212.163 360.577L212.102 360.746ZM216.613 360.746C216.604 360.77 216.617 360.775 216.62 360.78C216.648 360.8 216.677 360.815 216.706 360.832C216.859 360.913 217.003 360.937 217.155 360.937C217.463 360.937 217.654 360.773 217.654 360.509V360.504C217.654 360.26 217.438 360.171 217.236 360.107L217.209 360.099C217.057 360.049 216.925 360.006 216.925 359.906V359.9C216.925 359.814 217.002 359.751 217.121 359.751C217.254 359.751 217.411 359.795 217.513 359.851C217.513 359.851 217.542 359.87 217.553 359.841C217.559 359.826 217.611 359.688 217.616 359.673C217.622 359.656 217.612 359.645 217.601 359.638C217.485 359.568 217.325 359.52 217.16 359.52L217.129 359.52C216.847 359.52 216.65 359.69 216.65 359.934V359.939C216.65 360.197 216.867 360.28 217.071 360.338L217.103 360.349C217.252 360.394 217.38 360.433 217.38 360.538V360.543C217.38 360.638 217.296 360.709 217.162 360.709C217.11 360.709 216.945 360.708 216.766 360.595C216.744 360.582 216.731 360.574 216.715 360.563C216.709 360.56 216.683 360.549 216.674 360.577L216.613 360.746ZM219.693 360.229C219.693 360.378 219.665 360.495 219.61 360.579C219.556 360.661 219.474 360.701 219.36 360.701C219.246 360.701 219.164 360.661 219.111 360.579C219.057 360.496 219.029 360.378 219.029 360.229C219.029 360.08 219.057 359.963 219.111 359.88C219.164 359.799 219.246 359.76 219.36 359.76C219.474 359.76 219.556 359.799 219.611 359.88C219.665 359.963 219.693 360.08 219.693 360.229ZM219.95 359.952C219.925 359.867 219.886 359.792 219.833 359.729C219.781 359.666 219.714 359.616 219.636 359.579C219.557 359.542 219.464 359.524 219.36 359.524C219.256 359.524 219.163 359.542 219.084 359.579C219.005 359.616 218.939 359.666 218.886 359.729C218.834 359.792 218.795 359.867 218.769 359.952C218.744 360.037 218.732 360.13 218.732 360.229C218.732 360.328 218.744 360.421 218.769 360.505C218.795 360.591 218.834 360.666 218.887 360.729C218.939 360.792 219.006 360.842 219.084 360.878C219.163 360.913 219.256 360.932 219.36 360.932C219.464 360.932 219.557 360.913 219.636 360.878C219.714 360.842 219.781 360.792 219.833 360.729C219.886 360.666 219.925 360.591 219.95 360.505C219.975 360.42 219.988 360.327 219.988 360.229C219.988 360.13 219.975 360.037 219.95 359.952ZM222.062 360.661C222.054 360.636 222.03 360.645 222.03 360.645C221.992 360.66 221.952 360.673 221.91 360.68C221.867 360.686 221.82 360.69 221.769 360.69C221.644 360.69 221.546 360.653 221.475 360.579C221.404 360.506 221.364 360.388 221.364 360.228C221.365 360.082 221.4 359.972 221.463 359.889C221.526 359.806 221.621 359.763 221.748 359.763C221.855 359.763 221.935 359.776 222.02 359.802C222.02 359.802 222.041 359.811 222.05 359.785C222.073 359.722 222.089 359.677 222.113 359.609C222.12 359.589 222.103 359.581 222.097 359.579C222.064 359.565 221.985 359.544 221.926 359.535C221.87 359.527 221.805 359.522 221.733 359.522C221.625 359.522 221.528 359.541 221.446 359.577C221.364 359.614 221.294 359.665 221.239 359.727C221.184 359.79 221.142 359.866 221.114 359.951C221.086 360.036 221.072 360.129 221.072 360.228C221.072 360.441 221.129 360.614 221.243 360.74C221.357 360.867 221.528 360.931 221.751 360.931C221.883 360.931 222.018 360.904 222.115 360.866C222.115 360.866 222.134 360.857 222.126 360.835L222.062 360.661ZM222.512 360.086C222.525 360.003 222.548 359.934 222.583 359.881C222.636 359.799 222.717 359.754 222.832 359.754C222.946 359.754 223.022 359.799 223.076 359.881C223.112 359.934 223.127 360.006 223.133 360.086H222.512ZM223.378 359.904C223.357 359.821 223.302 359.738 223.267 359.7C223.211 359.64 223.156 359.598 223.102 359.574C223.031 359.544 222.946 359.524 222.852 359.524C222.744 359.524 222.645 359.542 222.565 359.579C222.485 359.617 222.417 359.669 222.364 359.732C222.311 359.796 222.272 359.872 222.246 359.958C222.221 360.044 222.208 360.138 222.208 360.236C222.208 360.337 222.221 360.43 222.248 360.514C222.274 360.599 222.317 360.674 222.374 360.736C222.431 360.798 222.505 360.847 222.593 360.881C222.68 360.915 222.787 360.932 222.909 360.932C223.16 360.931 223.293 360.875 223.347 360.845C223.357 360.839 223.366 360.83 223.355 360.803L223.298 360.644C223.289 360.62 223.265 360.629 223.265 360.629C223.203 360.652 223.114 360.693 222.908 360.693C222.773 360.693 222.672 360.653 222.61 360.591C222.545 360.527 222.514 360.433 222.508 360.301L223.379 360.302C223.379 360.302 223.402 360.301 223.404 360.279C223.405 360.27 223.434 360.1 223.378 359.904ZM215.539 360.086C215.552 360.003 215.574 359.934 215.61 359.881C215.663 359.799 215.744 359.754 215.858 359.754C215.973 359.754 216.048 359.799 216.103 359.881C216.138 359.934 216.154 360.006 216.16 360.086H215.539ZM216.405 359.904C216.383 359.821 216.329 359.738 216.294 359.7C216.238 359.64 216.183 359.598 216.129 359.574C216.058 359.544 215.972 359.524 215.879 359.524C215.771 359.524 215.672 359.542 215.592 359.579C215.511 359.617 215.444 359.669 215.391 359.732C215.338 359.796 215.298 359.872 215.273 359.958C215.248 360.044 215.235 360.138 215.235 360.236C215.235 360.337 215.248 360.43 215.275 360.514C215.301 360.599 215.343 360.674 215.401 360.736C215.458 360.798 215.532 360.847 215.62 360.881C215.707 360.915 215.814 360.932 215.936 360.932C216.187 360.931 216.32 360.875 216.374 360.845C216.384 360.839 216.393 360.83 216.382 360.803L216.325 360.644C216.316 360.62 216.292 360.629 216.292 360.629C216.23 360.652 216.141 360.693 215.934 360.693C215.799 360.693 215.699 360.653 215.637 360.591C215.572 360.527 215.541 360.433 215.535 360.301L216.406 360.302C216.406 360.302 216.429 360.301 216.431 360.279C216.432 360.27 216.461 360.1 216.405 359.904ZM213.657 360.656C213.623 360.629 213.618 360.622 213.607 360.605C213.59 360.578 213.581 360.54 213.581 360.491C213.581 360.415 213.606 360.36 213.659 360.323C213.658 360.323 213.734 360.257 213.911 360.26C214.036 360.262 214.147 360.28 214.147 360.28V360.676H214.148C214.148 360.676 214.037 360.7 213.912 360.707C213.735 360.718 213.657 360.656 213.657 360.656ZM214.004 360.044C213.968 360.042 213.923 360.04 213.868 360.04C213.793 360.04 213.721 360.05 213.653 360.068C213.585 360.086 213.524 360.115 213.471 360.152C213.419 360.19 213.376 360.239 213.345 360.296C213.314 360.353 213.299 360.421 213.299 360.496C213.299 360.574 213.312 360.64 213.339 360.695C213.365 360.75 213.403 360.796 213.452 360.831C213.501 360.867 213.56 360.893 213.63 360.908C213.698 360.924 213.775 360.932 213.86 360.932C213.949 360.932 214.038 360.924 214.125 360.91C214.21 360.895 214.315 360.874 214.344 360.867C214.364 360.862 214.385 360.857 214.405 360.852C214.426 360.846 214.425 360.823 214.425 360.823L214.424 360.027C214.424 359.852 214.378 359.723 214.286 359.643C214.194 359.563 214.06 359.522 213.886 359.522C213.821 359.522 213.716 359.531 213.653 359.544C213.653 359.544 213.462 359.581 213.384 359.642C213.384 359.642 213.367 359.653 213.376 359.676L213.438 359.842C213.446 359.864 213.467 359.856 213.467 359.856C213.467 359.856 213.473 359.854 213.481 359.849C213.648 359.758 213.86 359.761 213.86 359.761C213.954 359.761 214.027 359.78 214.076 359.817C214.123 359.853 214.147 359.908 214.147 360.024V360.061C214.072 360.051 214.004 360.044 214.004 360.044ZM221.026 359.596C221.033 359.576 221.019 359.567 221.013 359.564C220.999 359.559 220.924 359.543 220.867 359.539C220.758 359.533 220.697 359.551 220.643 359.576C220.589 359.6 220.529 359.639 220.496 359.684V359.578C220.496 359.563 220.485 359.552 220.471 359.552H220.247C220.233 359.552 220.222 359.563 220.222 359.578V360.877C220.222 360.891 220.234 360.903 220.249 360.903H220.478C220.485 360.903 220.491 360.901 220.496 360.896C220.501 360.891 220.504 360.884 220.504 360.877V360.228C220.504 360.141 220.514 360.054 220.533 359.999C220.552 359.946 220.577 359.902 220.609 359.871C220.641 359.84 220.677 359.819 220.717 359.807C220.757 359.794 220.802 359.79 220.834 359.79C220.879 359.79 220.929 359.802 220.929 359.802C220.946 359.804 220.955 359.794 220.961 359.778C220.976 359.739 221.018 359.619 221.026 359.596Z" fill="white"/>
<path d="M218.879 358.995C218.851 358.986 218.826 358.981 218.793 358.974C218.759 358.968 218.72 358.965 218.675 358.965C218.517 358.965 218.393 359.01 218.306 359.098C218.219 359.185 218.16 359.318 218.131 359.493L218.12 359.551H217.922C217.922 359.551 217.898 359.551 217.893 359.577L217.861 359.758C217.859 359.775 217.866 359.786 217.889 359.786H218.082L217.886 360.876C217.871 360.963 217.854 361.035 217.834 361.09C217.815 361.144 217.797 361.185 217.773 361.214C217.751 361.242 217.73 361.263 217.694 361.276C217.664 361.286 217.629 361.29 217.591 361.29C217.57 361.29 217.542 361.287 217.522 361.283C217.501 361.279 217.49 361.274 217.474 361.267C217.474 361.267 217.452 361.259 217.443 361.281C217.436 361.3 217.385 361.441 217.378 361.458C217.372 361.476 217.381 361.489 217.392 361.493C217.418 361.502 217.437 361.508 217.471 361.516C217.52 361.528 217.561 361.528 217.599 361.528C217.679 361.528 217.752 361.517 217.813 361.495C217.874 361.473 217.927 361.435 217.974 361.383C218.024 361.327 218.056 361.268 218.087 361.188C218.117 361.109 218.143 361.011 218.163 360.896L218.36 359.786H218.646C218.646 359.786 218.67 359.787 218.675 359.761L218.708 359.579C218.71 359.562 218.703 359.551 218.679 359.551H218.401C218.403 359.545 218.415 359.447 218.447 359.355C218.461 359.316 218.486 359.284 218.508 359.262C218.529 359.241 218.554 359.226 218.581 359.217C218.609 359.208 218.64 359.204 218.675 359.204C218.701 359.204 218.727 359.207 218.746 359.211C218.773 359.216 218.783 359.219 218.791 359.222C218.819 359.23 218.823 359.222 218.828 359.208L218.895 359.025C218.902 359.006 218.885 358.997 218.879 358.995ZM214.989 360.878C214.989 360.893 214.979 360.904 214.964 360.904H214.733C214.719 360.904 214.708 360.893 214.708 360.878V359.02C214.708 359.005 214.719 358.993 214.733 358.993H214.964C214.979 358.993 214.989 359.005 214.989 359.02V360.878Z" fill="white"/>
<g opacity="0.05" filter="url(#filter5_d_0_1)">
<rect x="249.001" y="313" width="27.9261" height="27.9261" rx="13.9631" fill="#FF7A59"/>
</g>
<path d="M265.234 325.518V324.219C265.406 324.139 265.552 324.011 265.654 323.852C265.756 323.692 265.811 323.506 265.811 323.317V323.287C265.811 322.734 265.363 322.286 264.811 322.286H264.781C264.228 322.286 263.78 322.734 263.78 323.287V323.317C263.781 323.506 263.836 323.692 263.938 323.852C264.04 324.011 264.185 324.139 264.357 324.219V325.518C263.864 325.594 263.399 325.799 263.01 326.112L259.446 323.336C259.471 323.244 259.485 323.15 259.486 323.055C259.487 322.832 259.421 322.614 259.297 322.428C259.174 322.242 258.998 322.098 258.792 322.012C258.586 321.926 258.359 321.903 258.141 321.947C257.922 321.99 257.721 322.097 257.563 322.254C257.405 322.412 257.297 322.612 257.253 322.831C257.209 323.05 257.231 323.276 257.317 323.483C257.402 323.689 257.546 323.865 257.731 323.989C257.916 324.113 258.134 324.18 258.357 324.18C258.552 324.179 258.744 324.127 258.913 324.029L262.422 326.76C261.777 327.735 261.794 329.005 262.465 329.962L261.398 331.029C261.312 331.002 261.222 330.987 261.131 330.986C260.62 330.986 260.206 331.401 260.206 331.912C260.206 332.423 260.621 332.837 261.132 332.838C261.643 332.838 262.057 332.424 262.058 331.912C262.057 331.822 262.042 331.732 262.014 331.646L263.07 330.589C264.014 331.316 265.31 331.378 266.319 330.746C267.328 330.114 267.837 328.921 267.595 327.755C267.353 326.589 266.412 325.697 265.234 325.518V325.518ZM264.797 329.792C264.602 329.797 264.408 329.763 264.226 329.692C264.044 329.621 263.878 329.515 263.739 329.379C263.599 329.242 263.488 329.08 263.412 328.9C263.336 328.72 263.297 328.527 263.297 328.332C263.297 328.137 263.336 327.944 263.412 327.764C263.488 327.584 263.599 327.421 263.739 327.285C263.878 327.149 264.044 327.042 264.226 326.971C264.408 326.9 264.602 326.866 264.797 326.872C265.583 326.899 266.206 327.544 266.206 328.331C266.207 329.117 265.584 329.763 264.798 329.791" fill="#FF7A59"/>
<g filter="url(#filter6_d_0_1)">
<rect x="73.4841" y="334" width="35.454" height="35.454" rx="17.727" fill="white"/>
</g>
<path d="M83.6599 356.845L86.5044 354.666C88.0157 356.638 89.6213 357.547 91.4085 357.547C93.1862 357.547 94.7464 356.649 96.1895 354.692L99.0746 356.818C96.9923 359.64 94.4047 361.131 91.4085 361.131C88.4218 361.131 85.8091 359.65 83.6599 356.845Z" fill="url(#paint0_linear_0_1)"/>
<path d="M91.3992 347.373L86.3362 351.736L83.9958 349.022L91.4099 342.633L98.7655 349.027L96.4144 351.731L91.3992 347.373Z" fill="url(#paint1_linear_0_1)"/>
<g opacity="0.1" filter="url(#filter7_d_0_1)">
<rect x="23.4841" y="299" width="27.6833" height="27.6833" rx="13.8416" fill="#55ACEE"/>
</g>
<path d="M37.2223 311.161L37.2443 311.523L36.878 311.479C35.5448 311.309 34.3801 310.732 33.3913 309.763L32.9078 309.282L32.7833 309.637C32.5196 310.429 32.688 311.264 33.2374 311.826C33.5304 312.137 33.4645 312.181 32.9591 311.996C32.7833 311.937 32.6294 311.893 32.6148 311.915C32.5635 311.967 32.7393 312.64 32.8785 312.906C33.0689 313.276 33.4572 313.638 33.882 313.853L34.241 314.023L33.8161 314.03C33.4059 314.03 33.3913 314.038 33.4352 314.193C33.5817 314.673 34.1604 315.184 34.805 315.406L35.2592 315.561L34.8636 315.798C34.2776 316.138 33.589 316.33 32.9005 316.345C32.5708 316.352 32.2998 316.382 32.2998 316.404C32.2998 316.478 33.1935 316.892 33.7136 317.055C35.2738 317.535 37.1271 317.328 38.5189 316.508C39.5078 315.923 40.4967 314.762 40.9581 313.638C41.2072 313.039 41.4563 311.945 41.4563 311.42C41.4563 311.079 41.4782 311.035 41.8884 310.628C42.1302 310.392 42.3572 310.133 42.4012 310.059C42.4744 309.918 42.4671 309.918 42.0935 310.044C41.4709 310.266 41.383 310.236 41.6907 309.904C41.9177 309.667 42.1888 309.238 42.1888 309.112C42.1888 309.09 42.0789 309.127 41.9544 309.194C41.8225 309.268 41.5295 309.379 41.3097 309.445L40.9142 309.571L40.5553 309.327C40.3575 309.194 40.0791 309.046 39.9326 309.001C39.559 308.898 38.9877 308.913 38.6507 309.031C37.7351 309.364 37.1564 310.222 37.2223 311.161Z" fill="#55ACEE"/>
<g opacity="0.1" filter="url(#filter8_d_0_1)">
<rect x="335.001" y="290" width="22.6251" height="22.6251" rx="11.3126" fill="#FFA412"/>
</g>
<path d="M348.385 301.128C347.565 301.128 346.9 301.793 346.9 302.614C346.9 303.434 347.565 304.099 348.385 304.099C349.206 304.099 349.871 303.434 349.871 302.614C349.871 301.793 349.206 301.128 348.385 301.128ZM344.525 301.128C343.705 301.128 343.04 301.793 343.04 302.614C343.04 303.434 343.705 304.099 344.525 304.099C345.346 304.099 346.011 303.434 346.011 302.614C346.011 301.793 345.346 301.128 344.525 301.128H344.525ZM347.941 299.271C347.941 300.092 347.276 300.757 346.455 300.757C345.635 300.757 344.97 300.092 344.97 299.271C344.97 298.451 345.635 297.786 346.455 297.786C347.276 297.786 347.941 298.451 347.941 299.271H347.941Z" fill="#FFA412"/>
<path opacity="0.05" d="M304.144 350.656C304.144 341.537 311.537 334.144 320.657 334.144C329.777 334.144 337.17 341.537 337.17 350.656C337.17 359.776 329.777 367.169 320.657 367.169C311.537 367.169 304.144 359.776 304.144 350.656Z" fill="#2681FF"/>
<path d="M318.273 349.023C318.099 348.837 317.829 348.848 317.711 349.084L314.865 354.776C314.812 354.882 314.818 355.007 314.88 355.108C314.942 355.208 315.051 355.269 315.169 355.269H319.133C319.263 355.272 319.382 355.198 319.437 355.081C320.292 353.314 319.774 350.627 318.273 349.023Z" fill="#2681FF"/>
<path d="M320.362 343.845C318.77 346.367 318.875 349.161 319.923 351.258L321.835 355.081C321.892 355.196 322.01 355.269 322.139 355.269H326.103C326.221 355.269 326.33 355.208 326.392 355.107C326.454 355.007 326.46 354.882 326.407 354.776C326.407 354.776 321.074 344.11 320.94 343.843C320.82 343.604 320.516 343.601 320.362 343.845Z" fill="#2681FF"/>
<path d="M149.539 307.48L154.47 309.216V326.59L161.415 322.577L158.01 320.978L155.862 315.625L166.805 319.474V325.069L154.473 332.189L149.539 329.442V307.48Z" fill="#008373"/>
<path opacity="0.07" d="M158.319 347.67C173.692 347.67 186.154 335.208 186.154 319.835C186.154 304.462 173.692 292 158.319 292C142.946 292 130.484 304.462 130.484 319.835C130.484 335.208 142.946 347.67 158.319 347.67Z" fill="#80A000"/>
<defs>
<filter id="filter0_d_0_1" x="-24.418" y="69.1313" width="89.3889" height="89.3892" filterUnits="userSpaceOnUse" color-interpolation-filters="sRGB">
<feFlood flood-opacity="0" result="BackgroundImageFix"/>
<feColorMatrix in="SourceAlpha" type="matrix" values="0 0 0 0 0 0 0 0 0 0 0 0 0 0 0 0 0 0 127 0" result="hardAlpha"/>
<feOffset dy="4.27604"/>
<feGaussianBlur stdDeviation="17.9594"/>
<feColorMatrix type="matrix" values="0 0 0 0 0.419608 0 0 0 0 0.482353 0 0 0 0 0.611765 0 0 0 0.2 0"/>
<feBlend mode="normal" in2="BackgroundImageFix" result="effect1_dropShadow_0_1"/>
<feBlend mode="normal" in="SourceGraphic" in2="effect1_dropShadow_0_1" result="shape"/>
</filter>
<filter id="filter1_d_0_1" x="7.72541" y="8.78013" width="96.5321" height="96.5323" filterUnits="userSpaceOnUse" color-interpolation-filters="sRGB">
<feFlood flood-opacity="0" result="BackgroundImageFix"/>
<feColorMatrix in="SourceAlpha" type="matrix" values="0 0 0 0 0 0 0 0 0 0 0 0 0 0 0 0 0 0 127 0" result="hardAlpha"/>
<feOffset dy="4.27604"/>
<feGaussianBlur stdDeviation="10.6901"/>
<feColorMatrix type="matrix" values="0 0 0 0 0.278431 0 0 0 0 0.32549 0 0 0 0 0.419608 0 0 0 0.15 0"/>
<feBlend mode="normal" in2="BackgroundImageFix" result="effect1_dropShadow_0_1"/>
<feBlend mode="normal" in="SourceGraphic" in2="effect1_dropShadow_0_1" result="shape"/>
</filter>
<filter id="filter2_d_0_1" x="278.781" y="0.955914" width="106.099" height="106.099" filterUnits="userSpaceOnUse" color-interpolation-filters="sRGB">
<feFlood flood-opacity="0" result="BackgroundImageFix"/>
<feColorMatrix in="SourceAlpha" type="matrix" values="0 0 0 0 0 0 0 0 0 0 0 0 0 0 0 0 0 0 127 0" result="hardAlpha"/>
<feOffset dy="4.27604"/>
<feGaussianBlur stdDeviation="10.6901"/>
<feColorMatrix type="matrix" values="0 0 0 0 0.278431 0 0 0 0 0.32549 0 0 0 0 0.419608 0 0 0 0.05 0"/>
<feBlend mode="normal" in2="BackgroundImageFix" result="effect1_dropShadow_0_1"/>
<feBlend mode="normal" in="SourceGraphic" in2="effect1_dropShadow_0_1" result="shape"/>
</filter>
<filter id="filter3_d_0_1" x="150.789" y="2.34512" width="93.0748" height="93.0747" filterUnits="userSpaceOnUse" color-interpolation-filters="sRGB">
<feFlood flood-opacity="0" result="BackgroundImageFix"/>
<feColorMatrix in="SourceAlpha" type="matrix" values="0 0 0 0 0 0 0 0 0 0 0 0 0 0 0 0 0 0 127 0" result="hardAlpha"/>
<feOffset dy="4.27604"/>
<feGaussianBlur stdDeviation="17.9594"/>
<feColorMatrix type="matrix" values="0 0 0 0 0.419608 0 0 0 0 0.482353 0 0 0 0 0.611765 0 0 0 0.1 0"/>
<feBlend mode="normal" in2="BackgroundImageFix" result="effect1_dropShadow_0_1"/>
<feBlend mode="normal" in="SourceGraphic" in2="effect1_dropShadow_0_1" result="shape"/>
</filter>
<filter id="filter4_d_0_1" x="173.635" y="319.892" width="87.7324" height="87.7324" filterUnits="userSpaceOnUse" color-interpolation-filters="sRGB">
<feFlood flood-opacity="0" result="BackgroundImageFix"/>
<feColorMatrix in="SourceAlpha" type="matrix" values="0 0 0 0 0 0 0 0 0 0 0 0 0 0 0 0 0 0 127 0" result="hardAlpha"/>
<feOffset dy="3.25788"/>
<feGaussianBlur stdDeviation="13.6831"/>
<feColorMatrix type="matrix" values="0 0 0 0 0.278431 0 0 0 0 0.32549 0 0 0 0 0.419608 0 0 0 0.1 0"/>
<feBlend mode="normal" in2="BackgroundImageFix" result="effect1_dropShadow_0_1"/>
<feBlend mode="normal" in="SourceGraphic" in2="effect1_dropShadow_0_1" result="shape"/>
</filter>
<filter id="filter5_d_0_1" x="210.735" y="279.29" width="104.457" height="104.458" filterUnits="userSpaceOnUse" color-interpolation-filters="sRGB">
<feFlood flood-opacity="0" result="BackgroundImageFix"/>
<feColorMatrix in="SourceAlpha" type="matrix" values="0 0 0 0 0 0 0 0 0 0 0 0 0 0 0 0 0 0 127 0" result="hardAlpha"/>
<feOffset dy="4.55544"/>
<feGaussianBlur stdDeviation="19.1328"/>
<feColorMatrix type="matrix" values="0 0 0 0 0.419608 0 0 0 0 0.482353 0 0 0 0 0.611765 0 0 0 0.1 0"/>
<feBlend mode="normal" in2="BackgroundImageFix" result="effect1_dropShadow_0_1"/>
<feBlend mode="normal" in="SourceGraphic" in2="effect1_dropShadow_0_1" result="shape"/>
</filter>
<filter id="filter6_d_0_1" x="35.2185" y="300.29" width="111.985" height="111.985" filterUnits="userSpaceOnUse" color-interpolation-filters="sRGB">
<feFlood flood-opacity="0" result="BackgroundImageFix"/>
<feColorMatrix in="SourceAlpha" type="matrix" values="0 0 0 0 0 0 0 0 0 0 0 0 0 0 0 0 0 0 127 0" result="hardAlpha"/>
<feOffset dy="4.55544"/>
<feGaussianBlur stdDeviation="19.1328"/>
<feColorMatrix type="matrix" values="0 0 0 0 0.278431 0 0 0 0 0.32549 0 0 0 0 0.419608 0 0 0 0.1 0"/>
<feBlend mode="normal" in2="BackgroundImageFix" result="effect1_dropShadow_0_1"/>
<feBlend mode="normal" in="SourceGraphic" in2="effect1_dropShadow_0_1" result="shape"/>
</filter>
<filter id="filter7_d_0_1" x="-14.7815" y="265.29" width="104.215" height="104.214" filterUnits="userSpaceOnUse" color-interpolation-filters="sRGB">
<feFlood flood-opacity="0" result="BackgroundImageFix"/>
<feColorMatrix in="SourceAlpha" type="matrix" values="0 0 0 0 0 0 0 0 0 0 0 0 0 0 0 0 0 0 127 0" result="hardAlpha"/>
<feOffset dy="4.55544"/>
<feGaussianBlur stdDeviation="19.1328"/>
<feColorMatrix type="matrix" values="0 0 0 0 0.419608 0 0 0 0 0.482353 0 0 0 0 0.611765 0 0 0 0.1 0"/>
<feBlend mode="normal" in2="BackgroundImageFix" result="effect1_dropShadow_0_1"/>
<feBlend mode="normal" in="SourceGraphic" in2="effect1_dropShadow_0_1" result="shape"/>
</filter>
<filter id="filter8_d_0_1" x="296.735" y="256.29" width="99.1565" height="99.1563" filterUnits="userSpaceOnUse" color-interpolation-filters="sRGB">
<feFlood flood-opacity="0" result="BackgroundImageFix"/>
<feColorMatrix in="SourceAlpha" type="matrix" values="0 0 0 0 0 0 0 0 0 0 0 0 0 0 0 0 0 0 127 0" result="hardAlpha"/>
<feOffset dy="4.55544"/>
<feGaussianBlur stdDeviation="19.1328"/>
<feColorMatrix type="matrix" values="0 0 0 0 0.419608 0 0 0 0 0.482353 0 0 0 0 0.611765 0 0 0 0.1 0"/>
<feBlend mode="normal" in2="BackgroundImageFix" result="effect1_dropShadow_0_1"/>
<feBlend mode="normal" in="SourceGraphic" in2="effect1_dropShadow_0_1" result="shape"/>
</filter>
<linearGradient id="paint0_linear_0_1" x1="83.6599" y1="359.063" x2="99.0746" y2="359.063" gradientUnits="userSpaceOnUse">
<stop stop-color="#8930FD"/>
<stop offset="1" stop-color="#49CCF9"/>
</linearGradient>
<linearGradient id="paint1_linear_0_1" x1="83.9958" y1="348.824" x2="98.7655" y2="348.824" gradientUnits="userSpaceOnUse">
<stop stop-color="#FF02F0"/>
<stop offset="1" stop-color="#FFC800"/>
</linearGradient>
</defs>
</svg>
